<svg xmlns="http://www.w3.org/2000/svg" width="250" height="250" viewBox="0 0 250 250">
<!-- SVG created with Arrow, by QuiverAI (https://quiver.ai) -->
  <path d="m5.19 125.4c0-65.35 54.95-119.9 119.4-119.9 64.94 0 120.4 54.41 120.4 119.6 0 64.47-55.07 119.4-120.4 119.4-64.92 0-119.4-54.54-119.4-119.1z" fill="#A9052F"/>
  <path d="m8.91 125.4c0-62.24 52.9-115.3 115.7-115.3 63.07 0 116.5 52.73 116.5 114.8 0 62.65-53.25 116-116.5 116-62.82 0-115.7-53.08-115.7-115.5z" fill="#A9052F" stroke="#fff" stroke-miterlimit="10" stroke-width="3.5"/>
  <path d="m12.92 124.9c0-59.85 51.18-111.4 111.6-111.4 60.82 0 111.6 51.17 111.6 111 0 60.42-50.99 111.5-111.6 111.5-60.42 0-111.6-51.15-111.6-111.1z" fill="#fff" stroke="#A9052F" stroke-miterlimit="10" stroke-width="1.5"/>
  <path d="m24.65 139.3c0.18-1.83 1.52-2.15 2.07-2.05 0.71 0.12 1.4 0.71 1.1 1.5-0.26 0.71-1.06 0.67-1.17 1.04-0.17 0.57 0.56 1.67 3.09 1.4l9.5-1.52 0.68-2.26 0.7-0.31 0.69 5.1-11.53 1.55c-3.68 0.37-5.39-1.93-5.13-4.45z" fill="#A9052F"/>
  <path d="m26.93 150.4 0.73-0.47 1.19 1.53 11.27-3.58 0.09-1.93 0.7-0.27 1.93 6.12-0.73 0.36-1.4-1.64-11.04 3.86-0.4 1.95-0.73 0.28-1.61-6.21z" fill="#A9052F"/>
  <path d="m29.07 160.6 0.54-0.64 1.63 0.94h15.07l0.56 0.83-10.41 10.77 0.26 1.41-0.65 0.44-2.93-5.52 0.64-0.43 1.67 1.05 2.73-3.16-2.9-5.29-3.46-0.2-0.73 1.72-0.67 0.24-1.35-2.16zm6.99 0.41 2.48 4.79 4.89-5.2-7.37 0.41z" fill="#A9052F"/>
  <path d="m38.12 178.8 0.42-0.69 2.07 0.5 7.74-0.68 2.54-6.91-0.48-1.4 0.67-0.53 4.22 5.14-0.57 0.64-1.72-0.77-2 5.63 5.98-0.55 0.74-1.66 0.72-0.26 3.36 4.52-0.58 0.65-2.02-1.05-8.2 0.4-3.1 7.93 0.42 1.5-0.65 0.54-4.16-5.47 0.57-0.59 1.72 0.9 2.44-6.52-6.17 0.6-0.9 1.77-0.69 0.26-2.37-3.9z" fill="#A9052F"/>
  <path d="m50.04 194.5 0.43-0.69 1.91 0.46 8.36-8.83-0.37-1.87 0.55-0.57 4.62 4.46-0.48 0.69-2.05-0.69-8.53 9.06 0.31 1.97-0.58 0.57-4.17-4.56z" fill="#A9052F"/>
  <path d="m57.82 201.9 0.43-0.69 1.72 0.16 7.88-10.27-0.47-1.17 0.47-0.69 3.21 2.21-0.85 13.32 6.76-8.65-0.69-1.5 0.54-0.69 4.01 2.8-0.44 0.69-1.87-0.4-9.23 12-1.32-1.05 0.96-14.06-7.31 9.06 0.69 1.63-0.54 0.69-3.95-3.39z" fill="#A9052F"/>
  <path d="m75.91 206c2.49-5.25 7.78-6.58 12.13-4.37 1.68 0.84 2.84 2.09 3.67 3.39l1.05-0.69 0.23 0.55-2.28 5.1-0.83-0.3c0.55-3.46-0.46-5.62-2.53-6.58-3.16-1.47-6.25 0.78-7.97 4.88-1.84 4.62-0.16 7.55 2.81 8.78 1.13 0.48 2.22 0.48 3.22 0.22l2.02-4.52-1.82-1.4 0.27-0.73 5.94 2.27-0.26 0.78-1.84 0.26-2.33 5.1c-2.27 0.16-4.18-0.15-6.01-0.94-4.6-2.09-7.46-6.72-5.47-11.8z" fill="#A9052F"/>
  <path d="m108.9 219.8 1-9.78-1.4-0.96 0.05-0.73 6.32 0.53 0.05 0.74-1.86 0.53-0.96 9.93c-0.3 3.02 1.6 4.49 4.02 4.49 2.27 0 3.67-1.53 4.03-4.33l1.4-9.39-1.72-1.05v-0.73l4.94 0.26v0.73l-1.68 0.79-1.5 9.78c-0.69 3.96-3.12 5.27-6.28 5.12-3.96-0.22-6.84-1.84-6.41-5.93z" fill="#A9052F"/>
  <path d="m126.1 225.1-0.16-0.79 1.57-0.9-0.69-12.88-1.18-0.54-0.11-0.84 3.91-0.32 9.47 12.11-0.73-11.04-1.72-0.73-0.05-0.79 4.94-0.44 0.16 0.79-1.5 1.05 1.06 14.96-1.72 0.26-10.61-13.28 0.96 12 1.72 0.73 0.05 0.79-5.37-0.14z" fill="#A9052F"/>
  <path d="m146 222.7-0.3-0.79 1.4-1.31-3.32-11.64-1.78-0.43-0.26-0.79 5.97-1.63 0.43 0.69-1.14 1.63 3.64 11.64 1.86 0.43 0.26 0.79-6.76 1.41z" fill="#A9052F"/>
  <path d="m163.3 218-0.96 0.37-11.01-11.93-1.63-0.3-0.36-0.79 6.1-2.7 0.36 0.69-1.15 1.53 8.08 9.13-0.11-12.56-1.63-0.9-0.26-0.79 4.24-2 0.48 0.65-0.96 1.45-1.19 18.15z" fill="#A9052F"/>
  <path d="m173.7 212.7-0.43-0.73 0.96-1.63-6.93-10.42h-1.72l-0.43-0.6 10.46-6.71 2.43 3.46-0.64 0.54-3.38-1.51-4 2.61 3.64 5.69 3.51-2.43-0.05-1.83 0.54-0.43 2.71 3.95-0.65 0.54-1.77-0.9-3.67 2.43 3.96 5.94 4.4-2.93 0.16-3.73 0.79-0.37 1.4 3.95-11.29 5.11z" fill="#A9052F"/>
  <path d="m190.1 202.4-0.67-0.54 0.47-1.97-8.84-9.67-1.72-0.1-0.54-0.59 4.35-3.96c2.8-2.66 5.7-2.23 7.33-0.37 1.23 1.4 1.38 3.23 0.33 5.14l6.97 2.27 1.68-0.6 0.54 0.55-3.29 3.67-7.12-2.84-1.29 1.24 4.52 4.84h1.72l-4.44 2.93zm-5.38-15.2 2.49 2.75 1.19-1.1c1.62-1.53 1.31-3.2 0.05-4.6-1.35-1.53-3.03-1.53-4.34-0.29-0.48 0.47-0.8 0.95-0.96 1.38l1.57 1.86z" fill="#A9052F"/>
  <path d="m199.6 188.9-3.51-2.27 0.48-0.9 2.87 0.36c1.3-0.36 2.4-1.1 3.19-2.34 1.05-1.68 0.74-3.26-0.56-4.16-1.3-0.84-2.61-0.52-5.04 0.74-2.59 1.3-4.6 1.79-6.57 0.43-2.13-1.48-2.03-4.37-0.5-6.63 0.78-1.19 1.79-2.09 2.94-2.73l3.24 1.97-0.37 0.79-3.03-0.54c-0.84 0.31-1.57 0.9-2.11 1.74-0.84 1.3-0.68 2.61 0.51 3.4 1.3 0.9 2.39 0.59 4.66-0.51 2.93-1.4 4.89-1.99 7.11-0.58 2.43 1.58 2.64 4.61 0.86 7.41-1.14 1.86-2.59 3.05-4.17 3.82z" fill="#A9052F"/>
  <path d="m209.2 177.7-0.69-0.48 0.05-2.07-10.41-6.93-1.78 0.64-0.69-0.43 3.25-5.29 0.73 0.37 0.05 2.21 10.56 7.04 1.82-1.06 0.69 0.43-3.58 5.57z" fill="#A9052F"/>
  <path d="m216.1 167.2-0.79-0.37-0.1-2.27-12.01-5.89-2.01 4.29 2.33 2.12-0.54 0.79-3.57-2.07 5.88-12.15 3.9 1.46-0.31 0.89-3.16-0.21-1.91 3.95 12.06 5.94 1.82-1.91 0.69 0.37-2.28 5.06z" fill="#A9052F"/>
  <path d="m223 149.3-0.84-0.26-0.48-2.61-5.58-1.5-7.22 2.8-1 1.15-0.69-0.26 1.67-5.79 0.74 0.11 0.43 1.97 6.07-2.34-5.24-5.15-1.1-0.37 0.15-2.12 0.74-0.16 0.73 1.97 6.38 6.37 5.73 1.24 1.5-1.63 0.64 0.21-2.63 6.37z" fill="#A9052F"/>
  <path d="m124.5 51.33c-42.39 0-72.68 34.88-72.68 73.19 0 7.32 0.92 12.52 2.49 19.71h54.34c4.78 0.48 11.04 2.03 16.23 3.76 5.83-2.2 11.99-3.65 19.02-3.65h50.76c1.77-7.19 2.14-12.18 2.14-19.61 0-37.52-30.99-73.4-72.3-73.4z" fill="#A9052F"/>
  <path d="m55.8 147.1c0.58 2.02 0.97 3.12 1.81 5.63h46.97c8.31 0 16.14 2.49 20.53 4.69 5.72-2.8 13.1-4.69 21.57-4.69h46.04c0.69-2.27 0.9-3.28 1.44-5.63h-49.06c-7.19 0-13.67 1.6-20.05 4.03-6.11-2.43-13.94-4.11-20.32-4.11l-48.93 0.08z" fill="#A9052F"/>
  <path d="m60.06 158.3c1.14 2.27 2.04 3.8 3.5 6.02h38.67c9.19 0 20.18 4.52 22.98 6.2 5.2-3.21 12.12-6.2 22.82-6.2h37.17c1.52-2.48 2.71-4.31 3.61-6.17h-42.13c-9.42 0-15.45 1.86-21.52 4.66-6.22-3.16-14.25-4.79-21.79-4.79l-43.31 0.28z" fill="#A9052F"/>
  <path d="m68.21 170c13 16.83 29.7 27.49 56.02 27.49 24.49 0 43.03-11.13 57.23-27.49h-29.81c-11.44 0-19.52 2.98-26.44 7.27-7.09-4.29-17.05-7.27-25.03-7.27h-31.97z" fill="#A9052F"/>
  <path d="m101.9 182.3 3.46-1.24v8.5l1.4 0.43v0.6h-4.24v-0.6l1.4-0.43v-6.91l-2.02 0.26v-0.61z" fill="#fff"/>
  <path d="m115.1 190.8c2.49-1.05 3.99-2.96 4.3-5.12-0.64 0.64-1.33 0.96-2.17 0.96-1.73 0-2.68-1.4-2.68-2.64 0-2.01 1.3-3.3 3.42-3.3 2.21 0 3.51 1.63 3.51 4.06 0 3.08-2.16 5.46-6.02 6.46l-0.36-0.42zm2.75-9.46c-1.19 0-1.56 1.15-1.56 2.45 0 1.4 0.64 2.35 1.83 2.35 0.54 0 0.97-0.21 1.39-0.58 0.16-0.59 0.21-1.13 0.21-1.72 0-1.51-0.63-2.5-1.87-2.5z" fill="#fff"/>
  <path d="m128.4 182.3 3.46-1.24v8.5l1.4 0.43v0.6h-4.24v-0.6l1.4-0.43v-6.91l-2.02 0.26v-0.61z" fill="#fff"/>
  <path d="m146 181h1.25v6.72h0.73l-0.31 1.24h-0.47v0.84l0.63 0.31v0.37h-2.98v-0.55l0.84-0.43v-0.78h-4.45v-0.95l4.76-6.77zm-0.26 1.68-3.31 5.04h3.31v-5.04z" fill="#fff"/>
  <path d="m101.8 65.22c14.03 3.7 30.75 7.89 48.05 10.99 1.1 0.22 0.21 0.32 0.37 0.53 2.74 29.35-2.99 59.64-46.86 61.15 22.37-13.17 21.48-37.48 6.3-60.78-2.8-4.2-5.34-7.09-7.86-10.62v-1.27z" fill="#fff"/>
  <path d="m78.22 51.43 6.9-4.62-2.93-6.67c-0.64-2.43-0.79-5.03 0-6.71 0.53-1.19 2.26-1.27 2.63-0.68 0.59 0.9-0.91 2.91-0.32 4.73 0.21 0.69 0.47 1.38 1.01 1.86l3.21-2.8c-0.64-1.53-2.6-2.32-2.45-3.82 0.11-1.11 1.56-2.51 2.75-2.41 1.3 0.11 2.8 1.98 4.3 2.82 0.9 0.5 1.59 0.3 1.8 0.99 0.37 1.3-0.47 3.84-0.37 5.42l0.64-0.53c0.74-2.89 0.37-7-1.21-11.3 0.64-1.3 2.55-1.99 3.45-1.45 0.84 0.48 0.84 2.01 0.79 3.54-0.21 3.27 0.32 6.68-0.37 8.31l3.26-1.63c0.48 1.05-0.21 2.51-1.56 3.2l-9.86 5.52 0.74 1.91-1.77 1.1-1.15-2.07-8.8 6.27c-1.05 0.26-1.2-0.53-0.69-0.98zm5.37-10.39 2.12 4.67 2.26-1.5-1.55-4.02-2.83 0.85zm4.75-8.6 0.79 2.8 2.32-0.16 1.5 3.78-1.4 0.85 1.4 3.03-2.89 1.57-3.02-7.29 1.3-4.58z" fill="#A9052F"/>
  <path d="m87.13 52.99c0.48-2.48 0.58-5.83 2.8-6.67 1.05-0.42 1.79 0.22 1.47 1.46-0.69 2.8-1.17 6.06-3.28 6.16-0.69 0.05-1.11-0.32-0.99-0.95z" fill="#A9052F"/>
  <path d="m96.71 46.01c1.09-0.9 3.21-1 3.8-0.1 0.64 0.95-0.1 2.72-1.4 2.88-1.63 0.2-2.82-0.64-2.92-1.58-0.06-0.6 0.1-0.86 0.52-1.2z" fill="#A9052F"/>
  <path d="m150.6 34.12c2.48 0.79 5.12 1.69 7.45 1.95 1.35-2.17 2.4-4.34 3.4-6.45 1.35-0.11 3.03 0.58 3.19 1.73 0.31 2.07-1.19 4.5-2.33 6.56 2.59 0.74 4.04 0.85 7.06 0.85 0.79 0.95-0.26 2.35-1.71 2.88-2.22 0.84-5.53-0.74-8.12-1.84-2.17 2.59-3.67 5.29-9.1 6.34-1.5 0.31-2.45-2.12-1.1-3.02 2.8-1.4 5.44-2.7 6.84-4.86-2.43-0.95-6.1-1.68-6.1-3.56-0.04-0.42 0.04-0.85 0.52-0.58z" fill="#A9052F"/>
  <path d="m159.2 42.7c1.91 1.14 4.61 4.21 4.51 5.56-0.11 1.19-1.61 1.61-2.6 0.66-1.63-1.63-2.42-4.71-2.52-5.81-0.11-0.79 0-0.84 0.61-0.41z" fill="#A9052F"/>
  <path d="m24.91 81.22 3.11-0.54 0.69-2.75c0.64-0.74 1.74-0.84 2.38-0.42 0.84 0.54 0.1 2.17 0.26 3.12l1.5-2.49c0.95-0.59 2.19 0.1 2.45 1.25 0.54 2.38-0.61 5.54-1.14 8.43l2.69 0.9 0.59-0.54-0.84-5.68 1.15-1.35 4.57 0.95 1.45 6.37-2.59 0.69-1.05-0.1-0.64 3.15-2.38 0.48-3.9-2.6 1.53-6.72-1.83-0.26-1.72 2.6-1.58-0.69 0.37-3.31-4.06-0.1-1.01-0.39zm15.32 2.6 1.4 0.43 0.43 3.67-2.94 0.38 1.11-4.48z" fill="#A9052F"/>
  <path d="m46.98 78.91 1.24-0.64c1.1 0.16 1.46 1.35 1.15 2.54l-3.46 13 3.31-0.64c2.59-0.15 5.9 2.28 6 4.93l-1.29 1.81c-1.3-2.43-3.26-4.59-6.01-4.59l-1.96 1.73c2.98 1.19 4.75 4.14 4.75 7.86l-1.24 0.59c-0.74-3.52-2.24-6.06-5.13-6.8l-1.19 3.21c-0.95 0.9-2.86 0-2.97-1.72l6.8-21.28z" fill="#A9052F"/>
  <path d="m50.14 87.72 4.35-0.59c1.45-0.11 1.82 1.96 1.23 3.2l-2.43 3.73-3.15-0.95v-2.27l2.69 0.37 1.1-1.77-3.51 0.16-0.28-1.88z" fill="#A9052F"/>
  <path d="m194.1 94.02 1.83-2.97 4.01 1.96 1.29-1.72-3.91-3.16 0.54-1.92 1.5-0.1 2.8 2.7 1.19-1.51-2.84-4.52-0.26-1.53 1.73-0.64 2.97 2.49 11.24-5.89 0.84-1.19 1.19 0.69-1.09 2.8-8.36 5.63 1.4 1.91 5.78-7.02 3.02-1.5 1.82 1.4-2.53 4.16 1.4-0.95 1.1-1.97 2.21 1.05-0.68 2.7 1.76 0.21-0.54 2.07-3.15 1.3-2.27-0.79 1.3-2.7-2.22 1.25-1.91 2.65-2.43-1.63-0.59 0.84 2.93 8.61 0.11 1-1.68 0.37-6.43-2.98 0.26-1.92 5.24 2.7-1.1-3.85-5.43-5.63-0.59 1.72 1.4 1.97-1.53 4.19 0.74 1.82-1 1.63-2.9-0.26-2.16-1.3-2.54 1.2c-1.68-0.06-3.13-1.46-3.46-3.37z" fill="#A9052F"/>
</svg>